<?xml version="1.0" standalone="no"?>
<!DOCTYPE svg PUBLIC "-//W3C//DTD SVG 20010904//EN"
 "http://www.w3.org/TR/2001/REC-SVG-20010904/DTD/svg10.dtd">
<svg version="1.0" xmlns="http://www.w3.org/2000/svg"
 width="1888.000000pt" height="1888.000000pt" viewBox="0 0 1888.000000 1888.000000"
 preserveAspectRatio="xMidYMid meet">
<metadata>
Created by potrace 1.14, written by Peter Selinger 2001-2017
</metadata>
<g transform="translate(0.000000,1888.000000) scale(0.100000,-0.100000)"
fill="#000000" stroke="none">
<path d="M3817 14074 c-1 -1 -94 -5 -207 -8 -113 -4 -221 -9 -240 -10 -19 -2
-69 -7 -110 -10 -91 -8 -143 -14 -184 -20 -17 -3 -53 -8 -81 -11 -27 -4 -61
-9 -75 -11 -14 -3 -38 -7 -55 -9 -16 -2 -41 -6 -55 -9 -28 -6 -63 -13 -100
-20 -14 -3 -34 -7 -45 -10 -82 -19 -122 -28 -135 -31 -8 -1 -35 -8 -60 -15
-25 -7 -51 -13 -57 -13 -7 0 -13 -3 -13 -7 0 -3 -9 -7 -20 -8 -43 -4 -50 -6
-50 -14 0 -4 -3 -7 -7 -6 -18 4 -219 -63 -310 -103 -23 -11 -44 -19 -47 -19
-6 0 -119 -50 -176 -78 -19 -9 -36 -20 -38 -24 -2 -5 -10 -8 -18 -8 -8 0 -32
-11 -54 -25 -22 -14 -40 -22 -40 -18 0 5 -4 4 -8 -2 -4 -5 -27 -21 -52 -34
-25 -13 -52 -30 -61 -37 -8 -8 -19 -14 -22 -14 -8 0 -229 -149 -237 -159 -3
-4 -21 -18 -40 -31 -19 -13 -40 -29 -46 -35 -6 -5 -36 -30 -65 -55 -75 -62
-288 -276 -329 -330 -19 -25 -41 -52 -49 -61 -9 -9 -23 -26 -31 -39 -8 -12
-21 -28 -28 -36 -6 -7 -12 -15 -12 -18 0 -3 -20 -33 -43 -68 -24 -35 -55 -83
-68 -108 -13 -25 -26 -47 -29 -50 -11 -10 -102 -201 -115 -240 -1 -3 -7 -18
-14 -35 -18 -47 -23 -60 -19 -61 2 0 -2 -7 -8 -15 -7 -8 -15 -30 -19 -49 -4
-19 -10 -39 -13 -45 -4 -5 -7 -14 -9 -20 -1 -5 -13 -55 -27 -110 -28 -108 -56
-256 -61 -320 -2 -22 -4 -40 -5 -40 -6 0 -11 -81 -15 -240 -3 -99 -6 -184 -6
-190 -1 -5 -1 -13 0 -17 0 -3 3 -46 6 -95 3 -48 8 -106 11 -128 2 -22 6 -58 8
-80 2 -22 5 -40 6 -40 1 0 3 -11 5 -25 2 -14 8 -52 15 -85 6 -33 13 -71 16
-85 10 -53 71 -253 90 -297 8 -17 14 -34 14 -38 0 -7 7 -24 49 -117 12 -27 22
-51 22 -55 1 -5 9 -19 18 -33 9 -14 27 -47 41 -75 14 -27 27 -52 30 -55 3 -3
11 -15 17 -27 7 -13 19 -33 25 -45 7 -13 16 -25 19 -28 3 -3 20 -27 39 -55 40
-59 125 -171 154 -202 12 -12 39 -43 61 -68 57 -66 159 -165 256 -248 24 -20
51 -43 59 -50 8 -8 47 -37 85 -66 39 -29 78 -59 88 -67 9 -8 22 -14 27 -14 6
0 10 -4 10 -8 0 -5 12 -15 28 -23 15 -8 29 -16 32 -19 9 -10 136 -90 143 -90
3 0 25 -12 49 -27 74 -48 80 -51 213 -119 71 -36 136 -70 142 -76 7 -6 13 -8
13 -4 0 3 31 -10 70 -29 38 -19 75 -35 83 -35 7 0 18 -5 25 -12 6 -6 20 -13
29 -14 9 -2 26 -7 38 -12 11 -5 34 -15 50 -22 17 -7 39 -17 50 -21 11 -5 79
-31 150 -58 72 -27 144 -54 160 -61 17 -7 39 -16 50 -21 316 -131 421 -178
556 -251 44 -24 159 -97 169 -108 3 -3 21 -17 42 -32 52 -40 178 -170 178
-185 0 -7 4 -13 8 -13 7 0 45 -56 48 -70 0 -3 10 -25 21 -50 33 -76 46 -138
47 -229 1 -118 -7 -170 -41 -251 -3 -8 -7 -22 -9 -30 -2 -8 -8 -16 -13 -18 -6
-2 -11 -8 -11 -14 0 -17 -71 -102 -112 -133 -21 -17 -44 -35 -51 -40 -17 -15
-133 -69 -187 -88 -39 -14 -78 -24 -165 -43 -101 -22 -402 -37 -457 -22 -17 4
-28 3 -28 -3 0 -6 -4 -7 -10 -4 -5 3 -36 8 -67 11 -55 4 -79 6 -183 19 -60 7
-223 35 -230 40 -3 2 -21 6 -41 9 -52 8 -310 76 -387 101 -7 3 -16 5 -20 6 -4
2 -50 18 -102 36 -52 19 -99 35 -105 36 -5 1 -12 4 -15 7 -3 3 -23 11 -45 19
-22 8 -56 21 -75 29 -19 9 -37 16 -40 16 -6 1 -74 33 -123 57 -21 10 -44 19
-51 19 -7 0 -19 7 -26 15 -7 9 -15 14 -17 11 -9 -9 -292 142 -456 243 -59 36
-116 71 -126 76 -35 20 -106 70 -109 78 -2 4 -8 7 -13 7 -6 0 -34 18 -63 40
-29 22 -55 40 -57 40 -3 0 -5 -551 -5 -1224 l0 -1225 41 -17 c22 -9 49 -20 60
-25 67 -28 95 -37 95 -32 0 3 6 1 13 -4 6 -6 30 -16 52 -22 22 -7 49 -16 60
-21 32 -14 174 -60 193 -63 9 -1 23 -6 30 -10 6 -5 12 -5 12 -1 0 3 6 2 13 -4
6 -6 30 -13 52 -17 22 -4 45 -10 50 -14 6 -3 15 -6 20 -6 6 -1 17 -4 25 -7 8
-4 47 -14 85 -23 39 -9 97 -23 130 -31 33 -7 69 -16 80 -18 11 -2 77 -15 146
-30 70 -14 146 -28 170 -31 48 -6 84 -13 84 -15 0 -1 20 -4 45 -6 58 -6 105
-12 105 -14 0 -1 16 -3 35 -5 19 -2 58 -7 85 -10 28 -3 68 -8 90 -10 22 -2 65
-6 95 -9 124 -12 297 -22 443 -26 56 -2 87 -7 87 -14 0 -7 3 -8 8 -1 4 7 79
11 197 11 176 1 487 11 580 19 22 2 69 6 105 9 36 3 83 8 105 11 22 3 60 8 85
10 25 2 59 6 75 9 17 3 50 7 75 10 25 3 56 8 70 11 14 3 43 7 65 10 22 2 51 7
65 10 14 3 39 8 55 11 17 3 50 10 75 16 25 5 61 12 80 15 19 3 42 9 50 13 17
9 98 23 103 18 2 -1 11 3 20 11 10 7 17 11 17 8 0 -4 19 1 43 9 23 9 51 17 62
19 36 5 250 77 264 89 8 6 15 10 15 8 1 -5 59 10 71 18 6 4 26 13 45 20 59 22
100 41 210 93 58 28 108 50 113 49 4 -1 7 2 7 7 0 5 9 13 20 16 54 17 297 178
430 284 96 78 297 273 359 351 19 23 41 48 48 56 7 7 13 17 13 22 0 6 3 12 8
14 13 5 72 85 72 97 0 7 7 14 15 17 8 4 15 12 15 20 0 8 5 14 10 14 6 0 10 4
10 10 0 5 16 34 35 65 20 30 35 58 34 61 0 4 4 10 9 13 22 14 185 376 197 439
2 9 4 19 5 22 1 3 2 8 1 13 0 4 3 7 7 7 5 0 9 6 9 13 0 6 14 66 31 132 17 66
33 136 36 155 3 19 8 46 11 59 2 14 7 47 10 75 3 28 8 62 10 76 2 14 7 68 10
120 3 52 8 96 10 99 3 2 0 10 -6 18 -6 7 -7 13 -2 13 10 0 9 52 -1 69 -4 5 -2
12 3 15 10 7 9 25 -2 44 -5 6 -5 12 0 12 4 0 8 11 8 25 0 14 -2 25 -5 25 -3 0
-5 28 -6 63 -2 140 -36 351 -80 503 -8 28 -16 60 -19 70 -2 11 -16 51 -30 89
-15 39 -32 86 -38 105 -6 19 -17 42 -24 51 -7 8 -13 19 -13 23 0 10 -73 160
-81 166 -3 3 -9 15 -13 28 -4 12 -12 22 -17 22 -5 0 -9 5 -9 11 0 13 -78 133
-130 200 -19 25 -46 60 -60 78 -71 95 -256 281 -383 386 -47 39 -117 94 -161
126 -28 21 -55 42 -61 46 -48 40 -371 243 -386 243 -5 0 -12 6 -15 13 -3 8
-10 14 -17 14 -7 0 -49 21 -93 47 -45 25 -87 46 -93 46 -6 0 -11 5 -11 10 0 6
-9 10 -19 10 -11 0 -21 4 -23 8 -3 8 -212 113 -323 163 -27 12 -79 35 -115 51
-97 45 -114 51 -122 50 -5 -1 -8 3 -8 9 0 5 -4 8 -9 4 -5 -3 -12 -1 -16 5 -4
6 -11 8 -16 5 -5 -4 -9 -1 -9 4 0 6 -3 10 -7 9 -5 -1 -17 3 -28 9 -11 6 -24
12 -30 13 -5 1 -25 8 -44 16 -18 8 -35 14 -37 14 -2 0 -27 11 -56 24 -29 13
-80 35 -113 49 -159 67 -349 157 -357 170 -4 7 -8 9 -8 4 0 -9 -178 81 -186
95 -3 4 -10 6 -15 3 -5 -4 -9 -1 -9 4 0 6 -7 11 -15 11 -8 0 -15 5 -15 10 0 6
-5 10 -11 10 -6 0 -44 23 -84 51 -67 46 -130 106 -178 170 -25 33 -78 145 -81
172 -2 12 -7 30 -11 40 -11 25 -12 193 -2 242 16 75 36 125 50 125 6 0 7 3 4
6 -7 8 45 84 84 123 36 36 96 81 108 81 6 0 11 4 11 8 0 9 133 77 192 98 21 7
38 11 38 7 0 -3 6 -1 13 4 14 11 85 31 137 39 19 2 46 7 60 9 89 16 460 29
484 17 4 -3 45 -6 90 -9 87 -4 148 -9 156 -13 3 -1 8 -2 12 -1 13 2 173 -22
263 -39 28 -5 61 -11 75 -14 14 -2 55 -11 91 -20 37 -8 78 -17 90 -20 13 -3
39 -9 57 -15 17 -5 32 -7 32 -3 0 3 5 1 12 -6 7 -7 20 -12 30 -12 21 0 135
-35 278 -85 52 -19 102 -35 110 -37 8 -2 17 -5 20 -8 5 -5 63 -28 85 -34 20
-6 92 -37 265 -114 19 -9 38 -16 42 -16 4 -1 13 -7 20 -13 6 -7 16 -13 20 -13
10 0 178 -83 241 -119 21 -11 39 -21 41 -21 7 0 4 2280 -3 2281 -8 1 -25 5
-76 19 -22 6 -47 13 -55 14 -8 2 -22 6 -30 9 -18 6 -139 37 -166 42 -10 2 -19
4 -19 5 0 2 -5 3 -55 13 -14 3 -40 10 -58 16 -18 5 -35 10 -37 10 -5 -1 -30 5
-85 17 -14 3 -34 7 -45 9 -11 2 -51 11 -90 20 -84 19 -157 33 -205 40 -34 4
-58 9 -113 21 -15 3 -49 7 -75 9 -26 2 -47 4 -47 5 0 2 -59 10 -105 14 -19 2
-35 5 -35 6 0 1 -18 4 -40 6 -22 2 -60 6 -85 9 -110 12 -158 17 -320 30 -152
12 -210 15 -435 21 -126 3 -252 6 -278 8 -26 1 -49 1 -50 0z"/>
<path d="M12328 14075 c-1 -2 -100 -6 -218 -8 -118 -3 -215 -6 -215 -7 0 -1
-20 -4 -45 -5 -104 -8 -175 -14 -175 -15 0 -1 -18 -3 -40 -5 -35 -2 -80 -7
-185 -20 -14 -2 -25 -4 -25 -5 0 -1 -16 -3 -35 -5 -19 -2 -48 -6 -65 -10 -16
-4 -43 -8 -60 -10 -16 -2 -55 -9 -85 -15 -30 -6 -68 -14 -85 -16 -16 -3 -83
-19 -148 -35 -65 -16 -128 -31 -140 -33 -12 -3 -23 -5 -24 -7 -2 -1 -6 -2 -10
-3 -5 -2 -28 -8 -53 -15 -25 -7 -49 -14 -55 -15 -5 -1 -16 -5 -22 -9 -7 -5
-13 -6 -13 -2 0 3 -13 -1 -30 -10 -16 -9 -30 -13 -30 -11 0 3 -30 -6 -67 -20
-38 -14 -75 -27 -83 -29 -24 -6 -251 -94 -263 -102 -7 -4 -14 -8 -17 -8 -6 -1
-62 -26 -140 -63 -30 -14 -57 -27 -60 -27 -3 -1 -27 -13 -55 -27 -144 -75
-182 -96 -207 -112 -16 -10 -28 -14 -28 -10 0 5 -4 4 -8 -2 -4 -6 -23 -20 -42
-31 -19 -10 -66 -39 -105 -63 -38 -25 -73 -44 -77 -42 -5 1 -8 -2 -8 -8 0 -5
-14 -17 -32 -26 -17 -9 -40 -25 -51 -35 -12 -10 -27 -19 -34 -19 -7 0 -13 -3
-13 -7 0 -5 -17 -19 -38 -33 -36 -24 -147 -108 -187 -142 -11 -9 -31 -26 -45
-38 -94 -77 -141 -121 -270 -250 -80 -80 -173 -176 -205 -214 -33 -38 -66 -75
-73 -82 -7 -8 -10 -14 -5 -14 4 0 3 -4 -4 -8 -11 -7 -96 -111 -123 -152 -8
-12 -26 -37 -40 -55 -14 -18 -50 -70 -80 -116 -30 -46 -59 -87 -65 -91 -5 -4
-6 -8 -1 -8 5 0 2 -8 -6 -17 -19 -22 -133 -216 -131 -223 1 -3 -6 -13 -14 -22
-9 -10 -12 -18 -7 -18 5 0 4 -4 -3 -8 -10 -6 -143 -271 -149 -297 -2 -5 -18
-46 -37 -90 -31 -72 -47 -110 -52 -125 -1 -3 -7 -18 -14 -35 -41 -99 -161
-492 -177 -583 -3 -14 -7 -29 -9 -33 -3 -4 -7 -24 -11 -45 -3 -22 -9 -55 -14
-74 -9 -36 -18 -77 -25 -120 -2 -14 -6 -34 -9 -45 -2 -11 -9 -56 -16 -100 -6
-44 -13 -91 -15 -105 -51 -345 -64 -910 -31 -1320 2 -25 5 -66 7 -92 1 -27 5
-48 8 -48 3 0 6 -19 7 -43 1 -39 9 -104 18 -152 2 -11 7 -40 10 -65 4 -25 15
-88 26 -140 11 -52 22 -107 24 -122 3 -16 12 -56 21 -90 8 -35 17 -72 20 -83
2 -11 18 -67 35 -125 17 -58 32 -109 33 -115 1 -5 6 -15 9 -21 4 -6 9 -21 11
-35 4 -21 12 -44 43 -124 4 -11 8 -23 9 -27 2 -5 4 -11 5 -15 1 -5 2 -11 1
-15 0 -5 4 -8 10 -8 5 0 8 -4 4 -9 -3 -5 -1 -12 5 -16 6 -4 8 -10 5 -15 -3 -5
-1 -11 5 -15 5 -3 10 -15 10 -26 0 -10 5 -19 10 -19 6 0 9 -3 8 -7 -1 -5 6
-25 15 -47 9 -21 17 -41 17 -43 0 -3 16 -36 35 -74 19 -38 32 -69 28 -69 -3 0
0 -6 6 -13 6 -8 34 -58 62 -113 29 -54 59 -110 68 -124 9 -14 21 -34 28 -45
70 -118 90 -149 123 -193 22 -29 36 -52 32 -52 -4 0 -2 -4 4 -8 5 -4 23 -25
39 -47 17 -22 32 -42 35 -45 3 -3 17 -21 30 -40 14 -19 33 -44 43 -55 10 -11
28 -33 40 -48 97 -125 363 -385 517 -506 36 -28 70 -54 75 -59 6 -4 26 -19 45
-32 19 -14 39 -31 43 -37 4 -7 15 -13 22 -13 8 0 15 -3 15 -8 0 -4 16 -16 35
-26 19 -10 42 -26 53 -35 21 -18 22 -19 162 -102 58 -34 121 -71 140 -83 19
-11 38 -21 42 -21 3 0 10 -4 15 -8 7 -7 67 -37 83 -42 3 0 23 -10 45 -22 22
-11 74 -35 115 -53 41 -18 91 -39 110 -47 75 -33 99 -42 210 -80 192 -67 214
-75 233 -74 9 0 17 -5 17 -11 0 -6 2 -9 6 -6 3 3 37 -3 77 -14 40 -11 81 -21
92 -23 11 -2 20 -4 20 -5 0 -2 9 -4 20 -5 11 -1 49 -10 85 -20 36 -9 76 -18
90 -20 14 -1 32 -5 40 -8 8 -3 33 -8 55 -11 22 -2 47 -7 55 -10 8 -3 33 -7 55
-10 22 -3 54 -8 70 -10 44 -7 115 -17 160 -22 22 -2 56 -7 75 -10 19 -2 69 -7
110 -10 41 -2 89 -6 105 -9 60 -9 305 -18 510 -19 131 0 213 -4 217 -11 5 -7
8 -6 8 1 0 7 39 11 108 13 112 2 189 6 332 16 47 3 112 8 145 10 33 2 89 7
125 11 36 4 82 7 102 8 21 0 38 3 38 6 0 5 35 9 123 13 15 1 27 4 27 7 0 3 17
5 38 6 20 1 55 4 77 8 22 4 69 11 105 17 57 9 344 64 393 75 9 2 26 6 38 9 11
2 28 6 37 9 9 3 31 8 47 11 32 6 57 12 65 15 3 1 10 3 15 5 6 1 12 3 15 4 3 2
12 4 20 6 40 8 187 48 205 55 11 5 54 19 95 31 41 12 80 25 85 29 6 4 18 6 28
5 9 -2 17 1 17 6 0 5 3 8 8 7 4 -1 24 4 45 12 36 14 37 15 37 65 4 366 0 2348
-4 2352 -3 3 -17 -4 -33 -15 -15 -11 -30 -20 -33 -21 -19 -3 -90 -35 -90 -40
0 -4 -10 -8 -22 -8 -13 -1 -24 -7 -26 -13 -2 -5 -10 -10 -17 -10 -7 0 -41 -13
-76 -29 -35 -16 -73 -32 -84 -36 -11 -5 -22 -9 -25 -10 -18 -8 -46 -16 -54
-15 -5 1 -12 -2 -15 -7 -6 -8 -98 -43 -186 -70 -27 -8 -61 -20 -75 -26 -14 -6
-29 -11 -35 -12 -5 -2 -45 -12 -88 -24 -91 -26 -76 -22 -242 -61 -71 -16 -146
-32 -165 -35 -20 -3 -47 -8 -60 -10 -14 -3 -47 -8 -75 -11 -51 -7 -80 -12 -80
-14 0 -1 -112 -11 -170 -14 -28 -1 -55 -5 -60 -8 -12 -6 -487 -7 -498 -1 -5 3
-39 7 -77 9 -38 2 -81 6 -97 9 -15 3 -50 8 -78 11 -27 3 -56 7 -64 10 -8 3
-28 7 -46 10 -17 2 -83 18 -146 35 -63 16 -121 31 -129 34 -8 2 -16 4 -17 5
-2 2 -6 3 -10 5 -5 1 -15 4 -23 8 -8 3 -49 18 -90 33 -80 29 -330 154 -350
174 -3 3 -41 30 -85 60 -44 30 -91 64 -104 75 -92 75 -214 196 -268 262 -21
26 -43 53 -50 58 -19 16 -139 198 -172 261 -17 31 -36 63 -42 71 -6 7 -9 13
-5 13 3 0 -8 28 -25 63 -17 34 -35 71 -39 82 -5 11 -12 29 -16 40 -4 11 -8 25
-9 30 0 6 -4 16 -8 22 -8 12 -53 157 -62 198 -2 11 -9 38 -14 60 -6 22 -12 54
-15 70 -3 17 -8 41 -11 55 -3 14 -8 45 -10 70 -3 25 -8 55 -11 68 -4 22 -10
83 -19 197 -5 62 -5 366 0 420 8 104 17 211 18 223 0 6 3 12 7 12 4 0 6 11 5
24 -5 45 64 345 102 446 3 8 7 20 8 25 4 17 61 156 86 210 51 110 189 335 210
343 5 2 9 9 9 16 0 7 10 22 23 33 12 11 33 36 47 54 105 138 375 358 560 455
30 16 58 34 62 39 4 6 8 7 8 3 0 -4 17 2 37 13 44 25 170 76 238 96 28 8 55
18 60 21 6 4 15 7 20 9 6 1 54 13 108 27 88 22 115 28 182 40 36 7 119 18 150
22 17 1 30 3 30 4 0 2 74 9 170 15 129 8 540 4 540 -5 0 -1 29 -3 65 -6 76 -4
165 -12 165 -14 0 -1 14 -3 30 -5 128 -18 174 -25 225 -36 25 -5 56 -11 70
-13 48 -9 208 -46 267 -62 32 -8 63 -16 68 -18 26 -6 132 -38 145 -43 29 -11
145 -53 155 -56 22 -6 151 -61 159 -69 6 -4 18 -8 28 -8 10 0 18 -4 18 -10 0
-5 6 -10 14 -10 7 0 58 -24 112 -54 54 -30 100 -53 102 -51 6 5 3 2477 -2
2483 -5 5 -86 28 -136 39 -27 5 -33 7 -70 16 -14 4 -36 9 -50 12 -14 3 -44 9
-67 14 -24 4 -43 6 -43 3 0 -2 -6 0 -13 6 -7 6 -32 13 -57 16 -25 4 -65 11
-90 16 -25 6 -74 15 -110 20 -36 6 -72 12 -80 15 -8 2 -33 6 -55 9 -22 4 -51
8 -65 11 -14 3 -43 7 -65 10 -22 3 -56 8 -75 11 -19 3 -53 7 -75 9 -22 2 -40
4 -40 5 0 3 -86 12 -132 13 -24 1 -43 5 -43 8 0 3 -15 5 -32 4 -18 -2 -37 0
-42 3 -5 3 -34 6 -65 8 -31 2 -99 6 -151 9 -52 3 -108 7 -125 10 -16 3 -142 7
-280 11 -137 3 -255 7 -262 9 -6 2 -13 2 -15 0z"/>
<path d="M16985 7301 c-3 -2 -26 -5 -52 -7 -69 -5 -185 -19 -235 -30 -15 -3
-31 -6 -35 -6 -5 0 -19 -5 -33 -10 -14 -6 -32 -11 -40 -12 -66 -9 -303 -104
-321 -129 -3 -5 -9 -8 -13 -7 -4 1 -30 -14 -59 -32 -29 -18 -56 -35 -61 -37
-10 -4 -55 -42 -88 -73 -10 -10 -21 -18 -24 -18 -17 0 -168 -176 -211 -245
-23 -37 -94 -183 -97 -202 -3 -10 -9 -30 -15 -46 -6 -15 -13 -40 -16 -55 -3
-15 -8 -36 -10 -47 -13 -59 -16 -75 -21 -135 -9 -89 -8 -192 0 -272 12 -111
14 -123 54 -253 19 -65 81 -198 96 -207 6 -4 7 -8 3 -8 -6 0 30 -58 65 -105
53 -70 187 -214 199 -215 4 0 21 -14 39 -30 85 -79 299 -191 460 -240 41 -13
84 -25 95 -26 11 -1 21 -3 23 -4 3 -3 11 -5 62 -14 25 -5 54 -10 65 -12 106
-20 585 -23 585 -4 0 3 15 5 33 4 17 0 37 2 42 5 6 3 19 6 30 7 101 10 308 75
429 136 122 61 148 76 157 90 5 7 9 10 9 6 0 -9 5 -5 100 75 73 61 160 152
160 167 0 6 4 10 8 10 12 0 86 115 125 195 48 97 88 223 102 316 2 19 7 48 11
64 8 39 8 276 1 337 -16 122 -84 342 -111 360 -6 4 -8 8 -4 8 13 0 -73 137
-111 178 -12 12 -19 22 -16 22 4 0 -35 41 -86 90 -51 50 -96 90 -100 90 -4 0
-14 6 -21 13 -46 46 -250 163 -325 187 -21 7 -42 16 -48 20 -8 5 -81 28 -115
36 -3 0 -12 3 -20 6 -19 7 -125 29 -165 35 -79 10 -105 13 -175 19 -86 7 -320
11 -325 5z"/>
</g>
</svg>
