<svg width="59" height="30" viewBox="0 0 59 30" fill="none" xmlns="http://www.w3.org/2000/svg">
<path d="M21.2578 20.5234C21.2578 22.3854 20.7565 24.0065 19.7539 25.3867C18.7643 26.7669 17.3711 27.7956 15.5742 28.4727C13.7773 29.1497 11.6159 29.4883 9.08984 29.4883C6.16016 29.4883 3.47786 28.9935 1.04297 28.0039V20.3281C2.21484 21.1875 3.51042 21.8841 4.92969 22.418C6.34896 22.9388 7.67057 23.1992 8.89453 23.1992C9.81901 23.1992 10.5352 23.0365 11.043 22.7109C11.5508 22.3724 11.8047 21.8841 11.8047 21.2461C11.8047 20.7904 11.6745 20.3932 11.4141 20.0547C11.1667 19.7031 10.7826 19.3776 10.2617 19.0781C9.75391 18.7786 8.80339 18.3685 7.41016 17.8477C2.90495 16.1159 0.652344 13.3164 0.652344 9.44922C0.652344 6.74089 1.68099 4.57943 3.73828 2.96484C5.79557 1.33724 8.55599 0.523438 12.0195 0.523438C12.9961 0.523438 13.8945 0.5625 14.7148 0.640625C15.5352 0.71875 16.2773 0.816406 16.9414 0.933594C17.6185 1.05078 18.5625 1.27214 19.7734 1.59766V8.72656C17.4167 7.4375 15.099 6.79297 12.8203 6.79297C11.8828 6.79297 11.1276 6.96875 10.5547 7.32031C9.98177 7.67188 9.69531 8.15365 9.69531 8.76562C9.69531 9.35156 9.92318 9.83984 10.3789 10.2305C10.8477 10.6081 11.8177 11.1029 13.2891 11.7148C16.1927 12.8867 18.2435 14.1693 19.4414 15.5625C20.6523 16.9557 21.2578 18.6094 21.2578 20.5234ZM45.5352 28.2383C43.2174 29.0716 40.5417 29.4883 37.5078 29.4883C34.526 29.4883 31.9544 28.9219 29.793 27.7891C27.6315 26.6432 25.9779 25.0221 24.832 22.9258C23.6992 20.8164 23.1328 18.388 23.1328 15.6406C23.1328 12.6849 23.7708 10.0547 25.0469 7.75C26.3229 5.44531 28.1263 3.66797 30.457 2.41797C32.7878 1.15495 35.4701 0.523438 38.5039 0.523438C40.9258 0.523438 43.2695 0.816406 45.5352 1.40234V9.19531C44.7539 8.72656 43.8229 8.36198 42.7422 8.10156C41.6615 7.84115 40.5677 7.71094 39.4609 7.71094C37.1693 7.71094 35.3594 8.36849 34.0312 9.68359C32.7161 10.9987 32.0586 12.7826 32.0586 15.0352C32.0586 17.2747 32.7161 19.0456 34.0312 20.3477C35.3594 21.6367 37.1302 22.2812 39.3438 22.2812C41.388 22.2812 43.4518 21.7604 45.5352 20.7188V28.2383ZM58.1719 25.5234C58.1719 26.7083 57.7552 27.6654 56.9219 28.3945C56.0885 29.1237 54.9362 29.4883 53.4648 29.4883C52.1237 29.4883 51.0234 29.1107 50.1641 28.3555C49.3177 27.5872 48.8945 26.6432 48.8945 25.5234C48.8945 24.3776 49.3112 23.4531 50.1445 22.75C50.9909 22.0339 52.1237 21.6758 53.543 21.6758C54.9232 21.6758 56.0365 22.0339 56.8828 22.75C57.7422 23.4531 58.1719 24.3776 58.1719 25.5234Z" fill="#141414"/>
</svg>
