<svg transform="scale(1)" version="1.1" id="Layer_1" xmlns="http://www.w3.org/2000/svg" xmlns:xlink="http://www.w3.org/1999/xlink" x="0px" y="0px" viewBox="0 0 500 500" xml:space="preserve" class="show_show__wrapper__graphic__5Waiy "><title>React</title><style type="text/css">
	.st0{fill:#D1D3D4;}
	.st1{fill:#231F20;}
	.st2{fill:#FFFFFF;}
	.st3{fill:#68E1FD;}
</style><g id="Shadow"><path class="st0" d="M222,423.2l-92.8-9.3c-0.4,0-0.6-0.4-0.6-0.7c0-0.3,0.3-0.5,0.6-0.6l123.5-9.5l52,16.3L222,423.2z"></path></g><g id="Monitor"><path class="st1" d="M190.9,367.8c0,0-9.8,32-10.1,36.6c-0.6,10.8,38.7,19.1,41.2,18.8s71.9-2,79.5-1.6s21.5-0.3,23.5-0.9
		s1.8-3.1,1.8-3.1L230.3,407c0,0-36.9,0.3-37.6-7.1s7.2-33,7.2-33L190.9,367.8z"></path><path class="st1" d="M221.9,423.9c-3.2,0-30.4-5.8-39-14c-1.9-1.8-2.9-3.7-2.8-5.6c0.3-4.7,9.7-35.5,10.1-36.8
		c0.1-0.3,0.3-0.5,0.6-0.5l9.1-0.9c0.2,0,0.5,0.1,0.6,0.3c0.1,0.2,0.2,0.4,0.1,0.6c-0.1,0.2-7.8,25.6-7.2,32.7
		c0.4,4.9,22.9,6.5,36.9,6.5l96.7,10.6c0.3,0,0.6,0.3,0.6,0.7c0,0.1,0.1,3-2.3,3.9c-2,0.7-16.1,1.4-23.8,1c-7.9-0.4-77,1.3-79.4,1.6
		L221.9,423.9z M191.4,368.4c-1.2,3.9-9.6,31.8-9.9,36c-0.1,1.5,0.7,3,2.3,4.5c8.5,8.1,36.4,13.8,38.1,13.6c2.4-0.2,71.6-2,79.6-1.6
		s21.5-0.3,23.3-0.9c0.8-0.3,1.3-1,1.3-1.9l-95.9-10.6c-3.8,0-37.5,0-38.2-7.7c-0.6-6.7,5.5-27.4,7-32.2L191.4,368.4z"></path><path class="st2" d="M193.6,367.8c0,0-7.7,29-7.9,35.3s31.5,16,36.3,16.8s94.2-0.4,99.5-1s5.1-1,4.1-1.6s-49.1-6.9-57-10.5
		s-9.3-10-8.3-17.7s2.2-16.9,2.2-16.9L193.6,367.8z"></path><path class="st1" d="M237.5,420.8c-8.4,0-14.4-0.1-15.6-0.3c-3.5-0.6-37-10.2-36.8-17.4c0.2-6.3,7.6-34.2,7.9-35.4
		c0.1-0.3,0.4-0.5,0.7-0.5l69,4.4c0.2,0,0.3,0.1,0.5,0.2c0.1,0.1,0.2,0.3,0.1,0.5l-2.2,16.9c-1.1,8.8,1.3,14.1,7.9,17.1
		c5.4,2.4,30.4,6.2,45.4,8.5c9.8,1.5,11.3,1.7,11.6,2s1,0.6,0.8,1.2s-0.7,1-5.2,1.5C318.1,419.9,264.8,420.8,237.5,420.8z
		 M194.1,368.5c-1,3.9-7.6,28.9-7.7,34.6c-0.2,5.5,30.3,15.2,35.7,16.1c4.9,0.8,95.2-0.5,99.4-1c1.8-0.2,2.8-0.4,3.4-0.5
		c-1.4-0.3-5.8-0.9-10.7-1.7c-15-2.3-40.1-6.1-45.7-8.6c-9.3-4.2-9.4-12.5-8.6-18.4l2.1-16.2L194.1,368.5z"></path><path class="st1" d="M425.9,371.7c-1.4,0.7-3,1.3-4.5,1.8c-1.4,0.3-278-1-337.4-1.3c-6.2,0-11.3-5-11.4-11.2L67.3,92.1
		c-0.1-5,2.8-11.7,8.5-14l0,0L425.9,371.7z"></path><path class="st1" d="M411.8,374.2c-42.9,0-218-0.8-327.9-1.3c-6.6-0.1-11.9-5.4-12.1-11.9L66.6,92.1c-0.1-5.3,3-12.2,8.9-14.7
		c0.2-0.1,0.5-0.1,0.7,0.1l350.2,293.7c0.2,0.2,0.3,0.4,0.2,0.6c0,0.2-0.2,0.4-0.4,0.5c-1.5,0.8-3.1,1.4-4.7,1.9
		C421.4,374.2,417.9,374.2,411.8,374.2z M75.6,78.8c-5.1,2.3-7.8,8.5-7.6,13.2l5.3,269c0.1,5.8,4.9,10.5,10.7,10.5
		c161.4,0.8,334.8,1.5,337.4,1.3c1.1-0.3,2.2-0.8,3.3-1.3L75.6,78.8z"></path><path class="st2" d="M422.8,372.2l-333.3-2c-6,0-10.9-4.8-11.1-10.9L77.8,330l-5-246.1c-0.1-3.8,2.9-7,6.7-7.1c0.5,0,1,0,1.5,0.1
		l323.4,52.3c4.7,0.9,8.2,4.7,8.8,9.4l17.2,200.5l2.4,22c0.6,5.5-3.4,10.4-8.9,11C423.5,372.2,423.1,372.2,422.8,372.2z"></path><path class="st1" d="M422.8,372.8L422.8,372.8l-333.3-2c-6.4,0-11.6-5.1-11.8-11.5L72.2,83.8c-0.1-4.2,3.2-7.6,7.4-7.7
		c0.5,0,1.1,0,1.6,0.1l323.4,52.4c5,0.9,8.8,5,9.3,10L431,339.1l2.4,22c0.6,5.8-3.6,11.1-9.4,11.7
		C423.6,372.8,423.2,372.8,422.8,372.8L422.8,372.8z M422.8,371.6c2.7,0,5.2-1.1,7-3.1c1.8-2,2.6-4.6,2.4-7.3l-2.4-22l-17.2-200.4
		c-0.5-4.5-3.8-8.1-8.2-8.9L80.9,77.5c-3.4-0.7-6.7,1.6-7.3,5c-0.1,0.4-0.1,0.9-0.1,1.3L79,359.4c0.1,5.7,4.8,10.2,10.5,10.2
		L422.8,371.6z"></path><path class="st1" d="M430.4,339.2L77.8,330l-5-246.1c-0.1-3.8,2.9-7,6.7-7.1c0.5,0,1,0,1.5,0.1l323.4,52.3c4.7,0.9,8.2,4.7,8.8,9.4
		L430.4,339.2z"></path><path class="st1" d="M430.4,339.9L430.4,339.9l-352.6-9.2c-0.4,0-0.7-0.3-0.7-0.7l-5-246.1c-0.1-4.2,3.2-7.7,7.4-7.8
		c0.5,0,1,0,1.6,0.1l323.4,52.3c5,0.9,8.8,5,9.4,10.1L431,339.1c0,0.2-0.1,0.4-0.2,0.5C430.7,339.8,430.5,339.9,430.4,339.9z
		 M78.4,329.3l351.2,9.1l-17.1-199.7c-0.5-4.4-3.8-8-8.2-8.8L80.9,77.6c-3.4-0.6-6.6,1.6-7.3,4.9c-0.1,0.4-0.1,0.9-0.1,1.3
		L78.4,329.3z"></path><path class="st0" d="M190.5,403.9c-0.4,0-0.8-0.4-0.8-0.8c0-0.4,0.3-0.8,0.8-0.8l69.2-1.6c0.4,0,0.8,0.3,0.8,0.8
		c0,0.4-0.3,0.8-0.7,0.8c0,0,0,0,0,0L190.5,403.9L190.5,403.9z"></path><path class="st2" d="M77.1,330L72.3,92.1c-0.2-8.4,0-10.5,1-12.5c0.2-0.3,0.6-0.5,0.9-0.3c0.3,0.2,0.5,0.6,0.3,0.9
		c-0.8,1.7-1,3.8-0.8,11.8L78.5,330H77.1z"></path></g><g id="Screen"><polygon class="st3" points="92.8,310.8 86.5,92.1 401.9,140.7 416.6,322.9 	"></polygon><path class="st2" d="M158.8,286.3c-0.2,0-0.5-0.1-0.6-0.3c-0.2-0.3-0.2-0.7,0.1-1c0,0,0,0,0.1,0l200.8-131.2c0.3-0.2,0.8-0.1,1,0.2
		c0.2,0.3,0.1,0.8-0.2,1l0,0L159.2,286.2C159,286.2,158.9,286.3,158.8,286.3z"></path><path class="st2" d="M308.3,269.7c-0.2,0-0.4-0.1-0.6-0.3c-0.2-0.3-0.2-0.7,0.1-1c0,0,0,0,0,0l70.2-49.1c0.3-0.2,0.8-0.1,1,0.2
		c0.2,0.3,0.1,0.8-0.2,1l-70.2,49.1C308.6,269.7,308.5,269.7,308.3,269.7z"></path><path class="st2" d="M134.1,201.9c-0.4,0-0.7-0.3-0.7-0.7c0-0.2,0.1-0.4,0.3-0.6c2.4-1.6,102.2-59.8,106.5-62.3
		c0.3-0.2,0.8-0.1,1,0.2c0.2,0.3,0.1,0.8-0.2,1c0,0,0,0-0.1,0c-1,0.6-104.1,60.7-106.4,62.3C134.4,201.9,134.2,201.9,134.1,201.9z"></path><path class="st2" d="M256,277.6c-0.2,0-0.5-0.1-0.6-0.3c-0.2-0.3-0.2-0.8,0.2-1c0,0,0,0,0,0c20.3-13.2,51-33.2,52.2-34.6
		c0.3-0.3,0.7-0.3,1,0c0.3,0.2,0.4,0.7,0.1,1c0,0,0,0,0,0c-1.3,1.6-47.3,31.4-52.5,34.8C256.3,277.6,256.1,277.6,256,277.6z"></path></g></svg>